<mxfile host="app.diagrams.net" modified="2023-10-10T15:07:10.204Z" agent="Mozilla/5.0 (Windows NT 10.0; Win64; x64) AppleWebKit/537.36 (KHTML, like Gecko) Chrome/117.0.0.0 Safari/537.36" etag="0Xpcz0bbDSSMCtopsSlx" version="22.0.4" type="github">
  <diagram name="Página-1" id="1hK9RMvG5S-Myt-WeiXA">
    <mxGraphModel dx="1750" dy="890" grid="1" gridSize="10" guides="1" tooltips="1" connect="1" arrows="1" fold="1" page="1" pageScale="1" pageWidth="1169" pageHeight="827" math="0" shadow="0">
      <root>
        <mxCell id="0" />
        <mxCell id="1" parent="0" />
        <mxCell id="ScIaOQdlyKfaAzq7ne4X-1" value="" style="whiteSpace=wrap;html=1;aspect=fixed;" parent="1" vertex="1">
          <mxGeometry x="170" y="20" width="760" height="760" as="geometry" />
        </mxCell>
        <mxCell id="ScIaOQdlyKfaAzq7ne4X-2" value="Universo&lt;br&gt;Puzzle+" style="rounded=0;whiteSpace=wrap;html=1;" parent="1" vertex="1">
          <mxGeometry x="170" y="20" width="120" height="60" as="geometry" />
        </mxCell>
        <mxCell id="ScIaOQdlyKfaAzq7ne4X-15" value="Definir características do jogador" style="ellipse;whiteSpace=wrap;html=1;" parent="1" vertex="1">
          <mxGeometry x="270" y="110" width="100" height="80" as="geometry" />
        </mxCell>
        <mxCell id="ScIaOQdlyKfaAzq7ne4X-17" value="Definir características do universo" style="ellipse;whiteSpace=wrap;html=1;" parent="1" vertex="1">
          <mxGeometry x="260" y="300" width="100" height="80" as="geometry" />
        </mxCell>
        <mxCell id="ScIaOQdlyKfaAzq7ne4X-24" value="Jogador" style="rounded=0;whiteSpace=wrap;html=1;" parent="1" vertex="1">
          <mxGeometry x="467.5" y="170" width="75" height="20" as="geometry" />
        </mxCell>
        <mxCell id="ScIaOQdlyKfaAzq7ne4X-25" value="Iniciar jogo" style="ellipse;whiteSpace=wrap;html=1;" parent="1" vertex="1">
          <mxGeometry x="600" y="50" width="90" height="60" as="geometry" />
        </mxCell>
        <mxCell id="ScIaOQdlyKfaAzq7ne4X-26" value="Solicitar dica" style="ellipse;whiteSpace=wrap;html=1;" parent="1" vertex="1">
          <mxGeometry x="600" y="120" width="90" height="60" as="geometry" />
        </mxCell>
        <mxCell id="ScIaOQdlyKfaAzq7ne4X-27" value="Mover números" style="ellipse;whiteSpace=wrap;html=1;" parent="1" vertex="1">
          <mxGeometry x="600" y="190" width="90" height="60" as="geometry" />
        </mxCell>
        <mxCell id="ScIaOQdlyKfaAzq7ne4X-28" value="Reiniciar fase" style="ellipse;whiteSpace=wrap;html=1;" parent="1" vertex="1">
          <mxGeometry x="720" y="50" width="90" height="60" as="geometry" />
        </mxCell>
        <mxCell id="ScIaOQdlyKfaAzq7ne4X-29" value="Sair da partida" style="ellipse;whiteSpace=wrap;html=1;" parent="1" vertex="1">
          <mxGeometry x="720" y="120" width="90" height="60" as="geometry" />
        </mxCell>
        <mxCell id="ScIaOQdlyKfaAzq7ne4X-40" value="" style="endArrow=classic;html=1;rounded=0;" parent="1" target="ScIaOQdlyKfaAzq7ne4X-25" edge="1">
          <mxGeometry width="50" height="50" relative="1" as="geometry">
            <mxPoint x="520" y="120" as="sourcePoint" />
            <mxPoint x="570" y="70" as="targetPoint" />
          </mxGeometry>
        </mxCell>
        <mxCell id="ScIaOQdlyKfaAzq7ne4X-42" style="edgeStyle=orthogonalEdgeStyle;rounded=0;orthogonalLoop=1;jettySize=auto;html=1;exitX=0.5;exitY=1;exitDx=0;exitDy=0;" parent="1" source="ScIaOQdlyKfaAzq7ne4X-26" target="ScIaOQdlyKfaAzq7ne4X-26" edge="1">
          <mxGeometry relative="1" as="geometry" />
        </mxCell>
        <mxCell id="ScIaOQdlyKfaAzq7ne4X-43" value="" style="endArrow=classic;html=1;rounded=0;entryX=0;entryY=0.5;entryDx=0;entryDy=0;" parent="1" target="ScIaOQdlyKfaAzq7ne4X-26" edge="1">
          <mxGeometry width="50" height="50" relative="1" as="geometry">
            <mxPoint x="530" y="140" as="sourcePoint" />
            <mxPoint x="700" y="132" as="targetPoint" />
          </mxGeometry>
        </mxCell>
        <mxCell id="ScIaOQdlyKfaAzq7ne4X-44" value="" style="endArrow=classic;html=1;rounded=0;" parent="1" target="ScIaOQdlyKfaAzq7ne4X-27" edge="1">
          <mxGeometry width="50" height="50" relative="1" as="geometry">
            <mxPoint x="530" y="150" as="sourcePoint" />
            <mxPoint x="700" y="152" as="targetPoint" />
          </mxGeometry>
        </mxCell>
        <mxCell id="ScIaOQdlyKfaAzq7ne4X-45" value="" style="endArrow=none;html=1;rounded=0;" parent="1" source="ScIaOQdlyKfaAzq7ne4X-26" target="ScIaOQdlyKfaAzq7ne4X-29" edge="1">
          <mxGeometry width="50" height="50" relative="1" as="geometry">
            <mxPoint x="690" y="180" as="sourcePoint" />
            <mxPoint x="740" y="130" as="targetPoint" />
          </mxGeometry>
        </mxCell>
        <mxCell id="ScIaOQdlyKfaAzq7ne4X-48" value="" style="endArrow=none;html=1;rounded=0;" parent="1" target="ScIaOQdlyKfaAzq7ne4X-28" edge="1">
          <mxGeometry width="50" height="50" relative="1" as="geometry">
            <mxPoint x="690" y="80" as="sourcePoint" />
            <mxPoint x="740" y="30" as="targetPoint" />
          </mxGeometry>
        </mxCell>
        <mxCell id="ScIaOQdlyKfaAzq7ne4X-49" value="" style="shape=switch;whiteSpace=wrap;html=1;" parent="1" vertex="1">
          <mxGeometry x="475" y="310" width="60" height="60" as="geometry" />
        </mxCell>
        <mxCell id="ScIaOQdlyKfaAzq7ne4X-50" value="Universo" style="rounded=0;whiteSpace=wrap;html=1;" parent="1" vertex="1">
          <mxGeometry x="467.5" y="370" width="75" height="20" as="geometry" />
        </mxCell>
        <mxCell id="ScIaOQdlyKfaAzq7ne4X-51" value="Embaralhar números" style="ellipse;whiteSpace=wrap;html=1;" parent="1" vertex="1">
          <mxGeometry x="600" y="280" width="90" height="60" as="geometry" />
        </mxCell>
        <mxCell id="ScIaOQdlyKfaAzq7ne4X-52" value="Exibir mensagem de vitória" style="ellipse;whiteSpace=wrap;html=1;" parent="1" vertex="1">
          <mxGeometry x="600" y="350" width="90" height="60" as="geometry" />
        </mxCell>
        <mxCell id="ScIaOQdlyKfaAzq7ne4X-53" value="Selecionar nível" style="ellipse;whiteSpace=wrap;html=1;" parent="1" vertex="1">
          <mxGeometry x="720" y="280" width="90" height="60" as="geometry" />
        </mxCell>
        <mxCell id="ScIaOQdlyKfaAzq7ne4X-54" value="Selecionar modo de jogo" style="ellipse;whiteSpace=wrap;html=1;" parent="1" vertex="1">
          <mxGeometry x="720" y="354" width="90" height="60" as="geometry" />
        </mxCell>
        <mxCell id="ScIaOQdlyKfaAzq7ne4X-55" value="" style="endArrow=classic;html=1;rounded=0;" parent="1" edge="1">
          <mxGeometry width="50" height="50" relative="1" as="geometry">
            <mxPoint x="536" y="330" as="sourcePoint" />
            <mxPoint x="600" y="310" as="targetPoint" />
          </mxGeometry>
        </mxCell>
        <mxCell id="ScIaOQdlyKfaAzq7ne4X-56" value="" style="endArrow=classic;html=1;rounded=0;entryX=0.049;entryY=0.347;entryDx=0;entryDy=0;entryPerimeter=0;" parent="1" target="ScIaOQdlyKfaAzq7ne4X-52" edge="1">
          <mxGeometry width="50" height="50" relative="1" as="geometry">
            <mxPoint x="535" y="354" as="sourcePoint" />
            <mxPoint x="599" y="334" as="targetPoint" />
          </mxGeometry>
        </mxCell>
        <mxCell id="ScIaOQdlyKfaAzq7ne4X-57" value="" style="endArrow=none;html=1;rounded=0;" parent="1" edge="1">
          <mxGeometry width="50" height="50" relative="1" as="geometry">
            <mxPoint x="690" y="309.5" as="sourcePoint" />
            <mxPoint x="720" y="309.5" as="targetPoint" />
          </mxGeometry>
        </mxCell>
        <mxCell id="ScIaOQdlyKfaAzq7ne4X-58" value="" style="endArrow=none;html=1;rounded=0;" parent="1" edge="1">
          <mxGeometry width="50" height="50" relative="1" as="geometry">
            <mxPoint x="690" y="383.5" as="sourcePoint" />
            <mxPoint x="720" y="383.5" as="targetPoint" />
          </mxGeometry>
        </mxCell>
        <mxCell id="ScIaOQdlyKfaAzq7ne4X-59" value="" style="shape=actor;whiteSpace=wrap;html=1;" parent="1" vertex="1">
          <mxGeometry x="485" y="110" width="40" height="60" as="geometry" />
        </mxCell>
        <mxCell id="ScIaOQdlyKfaAzq7ne4X-65" value="Pontuação" style="rounded=0;whiteSpace=wrap;html=1;" parent="1" vertex="1">
          <mxGeometry x="464.5" y="550" width="75" height="20" as="geometry" />
        </mxCell>
        <mxCell id="ScIaOQdlyKfaAzq7ne4X-69" value="" style="edgeStyle=orthogonalEdgeStyle;rounded=0;orthogonalLoop=1;jettySize=auto;html=1;" parent="1" source="ScIaOQdlyKfaAzq7ne4X-66" target="ScIaOQdlyKfaAzq7ne4X-67" edge="1">
          <mxGeometry relative="1" as="geometry" />
        </mxCell>
        <mxCell id="ScIaOQdlyKfaAzq7ne4X-66" value="" style="verticalLabelPosition=bottom;verticalAlign=top;html=1;shape=mxgraph.basic.flash" parent="1" vertex="1">
          <mxGeometry x="485" y="480" width="40" height="70" as="geometry" />
        </mxCell>
        <mxCell id="ScIaOQdlyKfaAzq7ne4X-67" value="Exibir os recordes" style="ellipse;whiteSpace=wrap;html=1;" parent="1" vertex="1">
          <mxGeometry x="600" y="485" width="90" height="60" as="geometry" />
        </mxCell>
        <mxCell id="ScIaOQdlyKfaAzq7ne4X-74" value="" style="edgeStyle=orthogonalEdgeStyle;rounded=0;orthogonalLoop=1;jettySize=auto;html=1;" parent="1" source="ScIaOQdlyKfaAzq7ne4X-71" target="ScIaOQdlyKfaAzq7ne4X-73" edge="1">
          <mxGeometry relative="1" as="geometry" />
        </mxCell>
        <mxCell id="ScIaOQdlyKfaAzq7ne4X-71" value="" style="strokeWidth=2;html=1;shape=mxgraph.flowchart.multi-document;whiteSpace=wrap;" parent="1" vertex="1">
          <mxGeometry x="470.5" y="645" width="69" height="50" as="geometry" />
        </mxCell>
        <mxCell id="ScIaOQdlyKfaAzq7ne4X-72" value="Dicas" style="rounded=0;whiteSpace=wrap;html=1;" parent="1" vertex="1">
          <mxGeometry x="464.5" y="695" width="75" height="20" as="geometry" />
        </mxCell>
        <mxCell id="ScIaOQdlyKfaAzq7ne4X-73" value="Mostrar o próximo movimento" style="ellipse;whiteSpace=wrap;html=1;" parent="1" vertex="1">
          <mxGeometry x="600" y="640" width="90" height="60" as="geometry" />
        </mxCell>
        <mxCell id="ScIaOQdlyKfaAzq7ne4X-76" value="" style="endArrow=none;dashed=1;html=1;dashPattern=1 3;strokeWidth=2;rounded=0;endSize=0;startSize=0;entryX=1;entryY=0.5;entryDx=0;entryDy=0;" parent="1" target="ScIaOQdlyKfaAzq7ne4X-17" edge="1">
          <mxGeometry width="50" height="50" relative="1" as="geometry">
            <mxPoint x="485" y="340" as="sourcePoint" />
            <mxPoint x="355" y="390" as="targetPoint" />
          </mxGeometry>
        </mxCell>
        <mxCell id="ScIaOQdlyKfaAzq7ne4X-77" value="Definir características da pontuação" style="ellipse;whiteSpace=wrap;html=1;" parent="1" vertex="1">
          <mxGeometry x="260" y="490" width="100" height="80" as="geometry" />
        </mxCell>
        <mxCell id="ScIaOQdlyKfaAzq7ne4X-79" value="Definir características das dicas" style="ellipse;whiteSpace=wrap;html=1;" parent="1" vertex="1">
          <mxGeometry x="260" y="630" width="100" height="80" as="geometry" />
        </mxCell>
        <mxCell id="ScIaOQdlyKfaAzq7ne4X-83" style="edgeStyle=orthogonalEdgeStyle;rounded=0;orthogonalLoop=1;jettySize=auto;html=1;entryX=0;entryY=0.5;entryDx=0;entryDy=0;" parent="1" source="ScIaOQdlyKfaAzq7ne4X-80" target="ScIaOQdlyKfaAzq7ne4X-15" edge="1">
          <mxGeometry relative="1" as="geometry" />
        </mxCell>
        <mxCell id="ScIaOQdlyKfaAzq7ne4X-86" style="edgeStyle=orthogonalEdgeStyle;rounded=0;orthogonalLoop=1;jettySize=auto;html=1;entryX=0;entryY=0.5;entryDx=0;entryDy=0;" parent="1" source="ScIaOQdlyKfaAzq7ne4X-80" target="ScIaOQdlyKfaAzq7ne4X-17" edge="1">
          <mxGeometry relative="1" as="geometry" />
        </mxCell>
        <mxCell id="ScIaOQdlyKfaAzq7ne4X-87" style="edgeStyle=orthogonalEdgeStyle;rounded=0;orthogonalLoop=1;jettySize=auto;html=1;entryX=0;entryY=0.5;entryDx=0;entryDy=0;" parent="1" source="ScIaOQdlyKfaAzq7ne4X-80" target="ScIaOQdlyKfaAzq7ne4X-77" edge="1">
          <mxGeometry relative="1" as="geometry" />
        </mxCell>
        <mxCell id="ScIaOQdlyKfaAzq7ne4X-89" style="edgeStyle=orthogonalEdgeStyle;rounded=0;orthogonalLoop=1;jettySize=auto;html=1;entryX=0;entryY=0.5;entryDx=0;entryDy=0;" parent="1" source="ScIaOQdlyKfaAzq7ne4X-80" target="ScIaOQdlyKfaAzq7ne4X-79" edge="1">
          <mxGeometry relative="1" as="geometry">
            <Array as="points">
              <mxPoint x="187" y="443" />
              <mxPoint x="187" y="670" />
            </Array>
          </mxGeometry>
        </mxCell>
        <mxCell id="ScIaOQdlyKfaAzq7ne4X-80" value="Actor" style="shape=umlActor;verticalLabelPosition=bottom;verticalAlign=top;html=1;outlineConnect=0;" parent="1" vertex="1">
          <mxGeometry x="102.5" y="395" width="32.5" height="85" as="geometry" />
        </mxCell>
        <mxCell id="ScIaOQdlyKfaAzq7ne4X-81" value="Programador" style="rounded=0;whiteSpace=wrap;html=1;" parent="1" vertex="1">
          <mxGeometry x="81.25" y="480" width="75" height="20" as="geometry" />
        </mxCell>
        <mxCell id="ScIaOQdlyKfaAzq7ne4X-90" value="" style="endArrow=none;dashed=1;html=1;dashPattern=1 3;strokeWidth=2;rounded=0;endSize=0;startSize=0;entryX=1;entryY=0.5;entryDx=0;entryDy=0;exitX=0.125;exitY=0.626;exitDx=0;exitDy=0;exitPerimeter=0;" parent="1" source="ScIaOQdlyKfaAzq7ne4X-66" edge="1">
          <mxGeometry width="50" height="50" relative="1" as="geometry">
            <mxPoint x="450" y="524" as="sourcePoint" />
            <mxPoint x="360" y="523.79" as="targetPoint" />
          </mxGeometry>
        </mxCell>
        <mxCell id="ScIaOQdlyKfaAzq7ne4X-91" value="" style="endArrow=none;dashed=1;html=1;dashPattern=1 3;strokeWidth=2;rounded=0;endSize=0;startSize=0;entryX=1;entryY=0.5;entryDx=0;entryDy=0;" parent="1" edge="1">
          <mxGeometry width="50" height="50" relative="1" as="geometry">
            <mxPoint x="470" y="670" as="sourcePoint" />
            <mxPoint x="360" y="670" as="targetPoint" />
          </mxGeometry>
        </mxCell>
        <mxCell id="ScIaOQdlyKfaAzq7ne4X-92" value="" style="endArrow=none;dashed=1;html=1;dashPattern=1 3;strokeWidth=2;rounded=0;endSize=0;startSize=0;entryX=1;entryY=0.5;entryDx=0;entryDy=0;" parent="1" edge="1">
          <mxGeometry width="50" height="50" relative="1" as="geometry">
            <mxPoint x="480" y="149" as="sourcePoint" />
            <mxPoint x="370" y="149.33" as="targetPoint" />
          </mxGeometry>
        </mxCell>
      </root>
    </mxGraphModel>
  </diagram>
</mxfile>
